<svg width="512" height="512" viewBox="0 0 512 512" fill="none" xmlns="http://www.w3.org/2000/svg">
<path d="M364.633 186.612L364.637 186.606C367.377 183.247 368.685 178.945 368.279 174.629C367.872 170.313 365.783 166.331 362.464 163.543C359.145 160.755 354.862 159.385 350.541 159.729C346.22 160.073 342.208 162.104 339.372 165.383L339.367 165.388L217.147 310.858L172.249 260.974C172.248 260.973 172.247 260.971 172.245 260.97C170.813 259.303 169.063 257.94 167.097 256.959C165.129 255.978 162.985 255.399 160.791 255.258C158.596 255.117 156.396 255.416 154.318 256.137C152.241 256.859 150.329 257.988 148.694 259.459C147.06 260.93 145.736 262.713 144.8 264.703C143.864 266.693 143.336 268.85 143.245 271.047C143.155 273.244 143.505 275.438 144.275 277.498C145.043 279.556 146.215 281.44 147.722 283.039C147.723 283.04 147.725 283.042 147.726 283.043L205.318 347.034C206.865 348.754 208.756 350.129 210.868 351.071C212.98 352.012 215.267 352.499 217.58 352.5L217.85 352.5L217.858 352.5C220.222 352.462 222.551 351.917 224.686 350.901C226.821 349.885 228.713 348.422 230.233 346.612L364.633 186.612ZM67.1192 67.1192C79.0238 55.2146 95.1646 48.5185 112 48.5H400C416.835 48.5185 432.976 55.2146 444.881 67.1192C456.785 79.0239 463.482 95.1648 463.5 112.001V399.999C463.482 416.835 456.785 432.976 444.881 444.881C432.976 456.785 416.835 463.482 399.999 463.5H112.001C95.1648 463.482 79.0239 456.785 67.1192 444.881C55.2146 432.976 48.5185 416.835 48.5 400V112C48.5185 95.1646 55.2146 79.0238 67.1192 67.1192Z" fill="#FFBC5E" stroke="#FFBC5E"/>
</svg>